<svg width="160" height="50" fill="none" xmlns="http://www.w3.org/2000/svg"><path d="M17.85 21.153c0-2.112-2.364-3.628-7.092-4.548h-.08a22.02 22.02 0 0 1-5.44-1.754c-1.531-.748-2.652-1.714-3.363-2.899a6.966 6.966 0 0 1-1.07-3.65c0-2.418 1.028-4.406 3.084-5.964C6.996.016 10.99-.62 14.628.626c.954.296 1.878.687 2.76 1.167.605.361 1.403.876 2.395 1.544.451.325.762.819.867 1.377a2.106 2.106 0 0 1-.289 1.606c-.297.473-.766.8-1.3.91a1.916 1.916 0 0 1-1.572-.3 21.54 21.54 0 0 0-3.364-2 7.468 7.468 0 0 0-3.124-.668c-1.774 0-3.225.43-4.352 1.292-1.127.862-1.692 1.78-1.694 2.753-.013.429.1.852.324 1.212.751 1.277 2.78 2.236 6.083 2.879h.081c1.912.36 3.777.945 5.56 1.744 3.333 1.7 4.999 4.037 4.997 7.011 0 2.594-1.101 4.714-3.303 6.362a12.338 12.338 0 0 1-7.6 2.483c-3.53-.018-6.974-1.408-10.332-4.17a2.142 2.142 0 0 1-.746-1.461 2.095 2.095 0 0 1 .425-1.577c.345-.448.853-.73 1.405-.78a1.864 1.864 0 0 1 1.531.478c2.582 2.17 5.154 3.242 7.716 3.213 2.014 0 3.646-.48 4.896-1.439 1.25-.96 1.87-1.996 1.858-3.109zM45.44 1.03c.583-.1 1.183.048 1.651.406.478.346.794.868.877 1.449a2.118 2.118 0 0 1-.389 1.633l-8.352 11.355v10.905a2.142 2.142 0 0 1-.652 1.576 2.15 2.15 0 0 1-1.57.646 2.214 2.214 0 0 1-1.59-.646 2.108 2.108 0 0 1-.671-1.576V15.873L26.473 4.524a2.055 2.055 0 0 1-.45-1.616c.08-.587.405-1.113.897-1.448a2.165 2.165 0 0 1 1.672-.426 2.068 2.068 0 0 1 1.426.91l6.967 9.45 6.967-9.454c.35-.492.887-.82 1.488-.91zm13.101 8.98v16.767a2.136 2.136 0 0 1-.667 1.556A2.17 2.17 0 0 1 56.28 29a2.203 2.203 0 0 1-1.598-.646 2.113 2.113 0 0 1-.664-1.577V3.264a1.838 1.838 0 0 1 .81-1.779 2.477 2.477 0 0 1 1.803-.463 2.155 2.155 0 0 1 1.453.87l13.393 18.056V3.305a2.07 2.07 0 0 1 .663-1.536 2.181 2.181 0 0 1 1.578-.646 2.26 2.26 0 0 1 1.598.646c.44.396.688.953.685 1.536v23.47a2.091 2.091 0 0 1-.685 1.576 2.303 2.303 0 0 1-1.64.646 2.142 2.142 0 0 1-1.66-.809 1.211 1.211 0 0 1-.209-.243L58.541 10.01zm44.803-8.372c.43.408.667.97.656 1.554a2.118 2.118 0 0 1-.676 1.576c-.41.423-.982.661-1.579.658h-6.517v21.3a2.18 2.18 0 0 1-1.102 1.967c-.71.41-1.592.41-2.302 0a2.181 2.181 0 0 1-1.102-1.966V5.426h-6.467a2.16 2.16 0 0 1-1.6-.658A2.15 2.15 0 0 1 82 3.192a2.147 2.147 0 0 1 .656-1.555c.424-.412 1-.641 1.599-.637h17.499a2.201 2.201 0 0 1 1.59.638zM110 3.198c-.004-.585.255-1.146.72-1.56A2.62 2.62 0 0 1 112.474 1a2.63 2.63 0 0 1 1.784.64c.482.403.752.969.742 1.558v23.601c.01.59-.259 1.157-.742 1.561a2.629 2.629 0 0 1-1.777.64 2.621 2.621 0 0 1-1.756-.64c-.465-.413-.724-.976-.718-1.56L110 3.197zm45 .002c-.005-.584.254-1.146.719-1.56a2.627 2.627 0 0 1 1.757-.64 2.632 2.632 0 0 1 1.78.64c.486.403.756.97.744 1.56v23.6c.012.59-.258 1.157-.744 1.56a2.632 2.632 0 0 1-1.78.64 2.627 2.627 0 0 1-1.757-.64c-.465-.414-.724-.976-.719-1.56V3.2z" fill="#fff"/><path d="M137.958 15.519a1.524 1.524 0 0 0-.208.578l-.206.362a.033.033 0 0 1-.01.03.035.035 0 0 1-.031.01L125.54 28.274a2.528 2.528 0 0 1-1.826.726 2.827 2.827 0 0 1-1.913-.726 2.436 2.436 0 0 1-.789-1.796 2.565 2.565 0 0 1 .777-1.85l9.83-9.635-9.83-9.638A2.446 2.446 0 0 1 121 3.542a2.513 2.513 0 0 1 .776-1.803A2.666 2.666 0 0 1 123.639 1a2.7 2.7 0 0 1 1.889.726l11.963 11.775c.053.107.104.193.146.26a.74.74 0 0 1 .08.162c.015.04.03.06.042.06.012 0 .021 0 .021.041l.178.483v.29c.02.065.034.133.042.201l-.042.2v.321z" fill="url(#paint0_linear)"/><path d="M132.247 13.951l.209-.364a.072.072 0 0 1 .021-.06.078.078 0 0 1 .063-.021.798.798 0 0 1 .25-.29l11.679-11.498a2.698 2.698 0 0 1 1.89-.718 2.667 2.667 0 0 1 1.863.739A2.51 2.51 0 0 1 149 3.54a2.456 2.456 0 0 1-.79 1.817l-9.837 9.64 9.837 9.645c.503.486.787 1.145.79 1.834a2.439 2.439 0 0 1-.79 1.797 2.772 2.772 0 0 1-3.741 0L132.79 16.775a.373.373 0 0 1-.209-.243.744.744 0 0 1-.25-.402.17.17 0 0 1-.125-.182.308.308 0 0 0-.081-.223.39.39 0 0 0-.083-.2v-.289l-.042-.243.042-.2v-.289l.122-.321c0-.136.015-.203.042-.203.009.002.019 0 .027-.005a.032.032 0 0 0 .014-.024z" fill="url(#paint1_linear)"/><path fill-rule="evenodd" clip-rule="evenodd" d="M0 50h2.994C6.36 50 8 48.309 8 44.889 8 41.752 6.244 40 3.094 40H0v10zm1.625-8.566h1.28c2.26 0 3.413 1.197 3.413 3.484 0 2.541-1.036 3.633-3.44 3.633H1.624v-7.117z" fill="#fff"/><path d="M15 40v10h-1V40h1zm12.257 1.358c-2.415 0-3.585 1.433-3.585 3.646 0 2.352 1.156 3.645 3.142 3.645a6.228 6.228 0 0 0 1.57-.169v-3.729H30v4.621a8.293 8.293 0 0 1-3.373.625c-2.613 0-4.627-1.446-4.627-4.907 0-3.303 1.977-5.089 5.042-5.089a6.07 6.07 0 0 1 2.571.51v1.417a5.296 5.296 0 0 0-2.356-.57zM37 40v10h-1V40h1zm10.89 10h-1.765v-8.54H43V40h8v1.46h-3.11V50z" fill="#fff"/><path fill-rule="evenodd" clip-rule="evenodd" d="M61.258 50H63l-3.525-10H57.54L54 50h1.675l.836-2.421h3.91L61.259 50zm-4.384-3.855l1.556-4.489h.03l1.573 4.489h-3.159z" fill="#fff"/><path d="M69 40h1.67v8.54H75V50h-6V40zm27.586 1.822a6.7 6.7 0 0 0-2.221-.469c-.913 0-1.626.34-1.626 1.264 0 2.229 4.261 1.123 4.261 4.514C97 49.189 95.405 50 93.652 50A6.504 6.504 0 0 1 91 49.438v-1.476a6.59 6.59 0 0 0 2.666.682c.941 0 1.666-.382 1.666-1.39 0-2.229-4.245-1.165-4.245-4.545 0-1.965 1.54-2.709 3.264-2.709.76.004 1.516.133 2.235.382v1.44zM105.897 50h-1.766v-8.54H101V40h8v1.46h-3.103V50zm13.044 0c-2.447 0-3.941-1.173-3.941-3.748V40h1.686v6.398c0 1.516.868 2.211 2.314 2.211 1.508 0 2.314-.695 2.314-2.197V40H123v6.252c0 2.475-1.538 3.748-4.059 3.748z" fill="#fff"/><path fill-rule="evenodd" clip-rule="evenodd" d="M128 50h2.983c3.369 0 5.008-1.691 5.017-5.111 0-3.137-1.756-4.889-4.906-4.889H128v10zm1.617-8.566h1.28c2.26 0 3.412 1.197 3.412 3.484 0 2.541-1.035 3.633-3.44 3.633h-1.252v-7.117z" fill="#fff"/><path d="M144 40v10h-1V40h1z" fill="#fff"/><path fill-rule="evenodd" clip-rule="evenodd" d="M155.519 40c-3.144 0-4.519 2.241-4.519 5.063 0 2.923 1.375 4.937 4.478 4.937 3.103 0 4.522-2.182 4.522-5.021S158.594 40 155.519 40zm-.013 1.36c2.046 0 2.852 1.647 2.852 3.647h-.003c0 1.972-.795 3.63-2.849 3.63-2.055 0-2.88-1.616-2.88-3.63 0-1.944.833-3.647 2.88-3.647z" fill="#fff"/><defs><linearGradient id="paint0_linear" x1="121.001" y1="1.003" x2="121.001" y2="28.985" gradientUnits="userSpaceOnUse"><stop stop-color="#8BC869"/><stop offset=".5" stop-color="#00B9AE"/><stop offset="1" stop-color="#00AEEF"/></linearGradient><linearGradient id="paint1_linear" x1="132.002" y1="1" x2="132.002" y2="29" gradientUnits="userSpaceOnUse"><stop stop-color="#F05144"/><stop offset="1" stop-color="#455CA9"/></linearGradient></defs></svg>